<svg xmlns="http://www.w3.org/2000/svg" viewBox="0 0 500 500"><g id="freepik--light-bulb--inject-34"><g id="freepik--Idea--inject-34"><g id="freepik--Light--inject-34"><circle cx="125" cy="82.36" r="42.47" transform="translate(-21.62 112.51) rotate(-45)" style="fill:#407BFF;opacity:0.1"></circle><circle cx="125" cy="82.36" r="53.68" transform="translate(-21.62 112.51) rotate(-45)" style="fill:#407BFF;opacity:0.1"></circle><circle cx="125" cy="82.36" r="64.32" transform="translate(21.53 190.54) rotate(-79.65)" style="fill:#407BFF;opacity:0.1"></circle><path d="M116.38,47.35a1.39,1.39,0,0,1-1.7-1l-3.34-13.58a1.41,1.41,0,0,1,2.73-.67l3.34,13.58A1.41,1.41,0,0,1,116.38,47.35Z" style="fill:#fff"></path><path d="M134.67,47.8a1.47,1.47,0,0,1-.72,0A1.4,1.4,0,0,1,133,46l3.9-13.43a1.41,1.41,0,1,1,2.7.79l-3.9,13.42A1.42,1.42,0,0,1,134.67,47.8Z" style="fill:#fff"></path><path d="M150.3,57.33A1.41,1.41,0,0,1,149,55l10.09-9.68a1.41,1.41,0,0,1,1.95,2L150.94,57A1.45,1.45,0,0,1,150.3,57.33Z" style="fill:#fff"></path><path d="M172.64,70.06,159.06,73.4a1.41,1.41,0,0,1-.67-2.74L172,67.33a1.4,1.4,0,0,1,1.7,1A1.42,1.42,0,0,1,172.64,70.06Z" style="fill:#fff"></path><path d="M172,95.59a1.39,1.39,0,0,1-.73,0l-13.42-3.9a1.41,1.41,0,0,1,.78-2.71l13.43,3.9a1.42,1.42,0,0,1,1,1.75A1.41,1.41,0,0,1,172,95.59Z" style="fill:#fff"></path><path d="M89,115.78a1.43,1.43,0,0,1-1.35-.39,1.41,1.41,0,0,1,0-2l10.09-9.68a1.41,1.41,0,1,1,1.95,2l-10.09,9.68A1.45,1.45,0,0,1,89,115.78Z" style="fill:#fff"></path><path d="M90.33,90,76.76,93.37a1.41,1.41,0,0,1-.67-2.73L89.66,87.3a1.41,1.41,0,0,1,1.7,1A1.39,1.39,0,0,1,90.33,90Z" style="fill:#fff"></path><path d="M90.78,71.74a1.51,1.51,0,0,1-.73,0l-13.43-3.9a1.41,1.41,0,0,1,.79-2.7L90.83,69a1.41,1.41,0,0,1,0,2.72Z" style="fill:#fff"></path><path d="M100.31,56.11A1.38,1.38,0,0,1,99,55.72L89.28,45.63a1.41,1.41,0,0,1,2-2L101,53.78a1.39,1.39,0,0,1,0,2A1.27,1.27,0,0,1,100.31,56.11Z" style="fill:#fff"></path></g><g id="freepik--Bulb--inject-34"><g id="freepik--Socket--inject-34"><path d="M133.36,132.17c-2.31-.66-2.78-2.56-1.05-4.23a8.33,8.33,0,0,1,7.33-1.82c2.31.67,2.78,2.56,1.05,4.23A8.33,8.33,0,0,1,133.36,132.17Z" style="fill:#263238"></path><path d="M141.64,128.91l-.84.21a2.55,2.55,0,0,0-1.34-.8,6.79,6.79,0,0,0-6,1.48,2.64,2.64,0,0,0-.81,1.33l-.84.21,1.34,1.29h0a2.83,2.83,0,0,0,1.16.61,6.78,6.78,0,0,0,6-1.48,2.79,2.79,0,0,0,.74-1.08h0Z" style="fill:#263238"></path><path d="M131.27,131.24c-3.42-1-4.11-3.79-1.54-6.26a12.35,12.35,0,0,1,10.84-2.66c3.42,1,4.11,3.79,1.54,6.26A12.32,12.32,0,0,1,131.27,131.24Z" style="fill:#455a64"></path><path d="M130.82,130.28c-3.55-1-4.26-3.94-1.6-6.49A12.8,12.8,0,0,1,140.47,121c3.54,1,4.26,3.94,1.59,6.5A12.8,12.8,0,0,1,130.82,130.28Z" style="fill:#37474f"></path><path d="M130.4,129.18c-3.64-1.05-4.37-4-1.64-6.65a13.12,13.12,0,0,1,11.53-2.84c3.64,1.06,4.37,4,1.64,6.66A13.11,13.11,0,0,1,130.4,129.18Z" style="fill:#455a64"></path><path d="M130,128.09c-3.73-1.08-4.48-4.14-1.68-6.82a13.45,13.45,0,0,1,11.82-2.91c3.72,1.08,4.47,4.14,1.67,6.82A13.44,13.44,0,0,1,130,128.09Z" style="fill:#37474f"></path><path d="M129.56,127c-3.82-1.11-4.59-4.23-1.72-7a13.77,13.77,0,0,1,12.1-3c3.82,1.11,4.58,4.24,1.72,7A13.77,13.77,0,0,1,129.56,127Z" style="fill:#455a64"></path><path d="M129.14,125.9c-3.91-1.14-4.7-4.34-1.76-7.15a14.09,14.09,0,0,1,12.38-3c3.91,1.14,4.7,4.34,1.76,7.15A14.09,14.09,0,0,1,129.14,125.9Z" style="fill:#37474f"></path></g><path d="M142.5,114c-.33-1.35-1.56-2.48-3.6-3.08a14.78,14.78,0,0,0-13,3.19c-1.53,1.47-2.09,3-1.76,4.4l.77,3.11c.33,1.36,1.56,2.49,3.6,3.08a14.77,14.77,0,0,0,13-3.18c1.53-1.47,2.09-3.05,1.76-4.4Z" style="fill:#407BFF"></path><path d="M118,53.7A28.39,28.39,0,0,0,97.17,88c5.38,21.88,24.33,21.08,26.49,29.9.35,1.4,1.62,2.58,3.74,3.2a15.31,15.31,0,0,0,13.45-3.31c1.59-1.53,2.18-3.16,1.83-4.56h0c-2.16-8.82,15-16.89,9.62-38.78A28.39,28.39,0,0,0,118,53.7Z" style="fill:#fff"></path><path d="M128.36,120.28c-3.55-1-4.26-3.94-1.6-6.49A12.8,12.8,0,0,1,138,111c3.55,1,4.26,3.94,1.6,6.5A12.82,12.82,0,0,1,128.36,120.28Z" style="fill:#f5f5f5"></path><path d="M140.7,116.16a6.84,6.84,0,0,1-1.09,1.36,12.83,12.83,0,0,1-11.25,2.76,6.15,6.15,0,0,1-1.59-.7,6.43,6.43,0,0,1,1.08-1.36,12.83,12.83,0,0,1,11.25-2.76A5.9,5.9,0,0,1,140.7,116.16Z" style="fill:#407BFF;opacity:0.25"></path><path d="M140.7,116.16a6.84,6.84,0,0,1-1.09,1.36,12.83,12.83,0,0,1-11.25,2.76,6.15,6.15,0,0,1-1.59-.7,6.43,6.43,0,0,1,1.08-1.36,12.83,12.83,0,0,1,11.25-2.76A5.9,5.9,0,0,1,140.7,116.16Z" style="fill:#ebebeb"></path><path d="M134.72,61.38a4.55,4.55,0,0,0-.82.82,4.15,4.15,0,0,0-.42,4.08c1,2.57,4,3.6,6,5.31a24.49,24.49,0,0,1,5.44,6.63,14.49,14.49,0,0,0,1.62,2.64,2.23,2.23,0,0,0,3,.25,4.19,4.19,0,0,0,1.05-3.4,21.7,21.7,0,0,0-7.39-14.84C140.84,60.68,137.61,59.21,134.72,61.38Z" style="fill:#407BFF;opacity:0.1"></path><path d="M146.9,85.31a3.14,3.14,0,0,0,.89,2.4,1.82,1.82,0,0,0,2.56,0,2.93,2.93,0,0,0,.72-2.71,2.21,2.21,0,0,0-2.33-1.76A2.32,2.32,0,0,0,146.9,85.31Z" style="fill:#407BFF;opacity:0.1"></path><path d="M137.08,117.61l-.32.08c-2.41-9.81-3.35-16.1-3.14-21a19.81,19.81,0,0,1,.5-3.77,17.45,17.45,0,0,1-7.05-2.12,17.52,17.52,0,0,1-5.27,5.15A19.52,19.52,0,0,1,124,99c2.47,4.27,4.56,10.27,7,20.08l-.32.08c-2.41-9.78-4.48-15.76-6.93-20a19.59,19.59,0,0,0-2.2-3.1,8.76,8.76,0,0,1-.87.43c-3.07,1.32-5.17.86-6.1,0a2.13,2.13,0,0,1-.53-2.38,2.19,2.19,0,0,1,2-1.4c1.45-.14,3.49.64,5.59,3a17,17,0,0,0,5.21-5.06,7,7,0,0,1-1.18-.87c-2.07-1.91-2.46-3.9-2.15-5.13a2.29,2.29,0,0,1,1.68-1.7,2.26,2.26,0,0,1,2.26.73c.86.94,1.43,2.89.49,5.54a8,8,0,0,1-.65,1.32,17.09,17.09,0,0,0,7,2.07c.79-3,2.24-4.66,3.58-5.21a2.19,2.19,0,0,1,2.4.32,2.14,2.14,0,0,1,.64,2.36c-.42,1.21-2.06,2.59-5.39,2.85-.32,0-.64,0-1,0a18.69,18.69,0,0,0-.51,3.77C133.74,101.57,134.68,107.83,137.08,117.61Zm-2.54-25a8.1,8.1,0,0,0,.86,0c3.18-.24,4.73-1.52,5.11-2.63a1.79,1.79,0,0,0-.55-2,1.85,1.85,0,0,0-2.05-.26C136.71,88.16,135.32,89.71,134.54,92.58Zm-18.9.53a1.77,1.77,0,0,0-1.32,1.12,1.83,1.83,0,0,0,.44,2c.86.8,2.83,1.22,5.75,0,.26-.11.51-.24.77-.38-2-2.18-4-2.91-5.26-2.8Zm9.58-9.88a1.93,1.93,0,0,0-1.44,1.46c-.37,1.43.44,3.32,2,4.81a6.76,6.76,0,0,0,1.13.83,7.28,7.28,0,0,0,.62-1.26c.73-2.07.57-4.11-.42-5.21A1.94,1.94,0,0,0,125.22,83.23Z" style="fill:#455a64"></path></g></g></g><g id="freepik--character-1--inject-34"><g id="freepik--character--inject-34"><g id="freepik--bottom--inject-34"><g id="freepik--bottom--inject-34"><polygon points="160.19 418.23 163.75 416.71 160.38 415.55 160.19 418.23" style="fill:#263238"></polygon><path d="M194.25,426.6s-39.91-20.91-40.57-18.16a4.17,4.17,0,0,0-.08,1.67l-.1-.15.46,5.22a12.13,12.13,0,0,0,6.23,3c0-.24.13-1.79.19-2.67a21.49,21.49,0,0,1,3.51,2.14c2.52,1.89,4,5.05,6.62,8.75,1.89,2.71,5.44,4.12,10.76,5.19,5.73,1.15,10.87.32,12.4-1.16C194.88,429.3,194.44,427,194.25,426.6Z" style="fill:#263238"></path><path d="M193.19,425.36c-.37-.44-1.74-2.14-3.62-4-1.64-1.64-3.55-3.7-5.62-5.4a51.76,51.76,0,0,1-4.7-5.13c-1.83-2.71-3.83-5.39-5-8.44-.56-1.44-1-3.15-.63-8.47.48-7.43.77-9.1,1.12-14.75L154,377.77c.39,3.16,1.26,7.61,1.71,11.9.56,5.42,2.3,6-.1,11.32-.71,1.55-1.72,3-1.9,4.73-.28,2.77,1.75,5.28,4.09,6.78,1.94,1.23,4.23,1.85,6.11,3.16a20.2,20.2,0,0,1,4.81,5.32c1.28,1.85,2.27,4,4.13,5.37a18.1,18.1,0,0,0,6.54,2.7,36.26,36.26,0,0,0,8.94,1C192.63,429.92,195.88,428.54,193.19,425.36Z" style="fill:#f28f8f"></path><path d="M191,422.42c-1.68-1.59-4.06-3.87-6.94-6.45a7.73,7.73,0,0,0-6.39.22c-6.26,2.88-7.56,7.38-7.56,7.38a8.78,8.78,0,0,0,4.72,4.65c6.86,3.49,19.49,3.22,19.8,0C194.82,426.12,193,424.35,191,422.42Zm-34.91-22.36s-.47,1-1.67,3.08a5.91,5.91,0,0,0-.29,6.28,9.36,9.36,0,0,0,5.93,4.56C162.35,407.91,158.44,401.53,156.08,400.06Z" style="fill:#37474f"></path><path d="M120.91,405c1,1.87-1,11-1.07,15.79-.1,4.32-.12,12.05-1.88,16.16-2.08,4.87-6,10.37-11.94,5.06-3.7-3.29-5.65-7.28-5.69-13.51,0-4.34,2.29-10.1,4.29-15.22,2.34-6,3.31-9.2,3.31-9.2Z" style="fill:#263238"></path><path d="M109.82,374.94c-1.26,10-1.27,15.68-1.71,22.1a85.47,85.47,0,0,1-1.57,10c-.88,4.09-2.62,9.59-3.48,12.18-1.2,3.62-2.07,5.89-1,10.18a5.65,5.65,0,0,0,.38,1c1.65,3.61,6.33,6.66,7.93,6.39A2.85,2.85,0,0,0,113,437.9a3.35,3.35,0,0,0,.53-.07,3.79,3.79,0,0,0,.53-.14,5,5,0,0,0,2.86-2.9,7.14,7.14,0,0,0,.32-.89,34,34,0,0,0,1.54-10.38c.06-2.34.43-6.42,1-10.16s3.33-13.95,4.88-19.55c1.28-4.64,3.77-14.16,3.77-14.16Z" style="fill:#f28f8f"></path><path d="M101.72,423.92c4-1.21,15.46-.18,16.83,5.05-.33,4.77-.84,7.82-4.41,11.65-4.74,5.1-9.88-1.27-11.73-5.19S101,426.44,101.72,423.92Z" style="fill:#37474f"></path><path d="M131.43,243.45c-5.57,8.91-13.29,12.34-14.43,40.29-1.11,27.37-1.54,38.1-1.81,41.4-.46,5.62-3.59,10.88-6.2,27s-2.51,45.63-2.51,45.63a19.46,19.46,0,0,0,10,4.65c5.7.84,8.21-1.39,8.21-1.39s10.84-43.7,13.57-53.36,10.88-41.47,10.88-41.47L152.36,333s-3.22,8.43-2.28,22.77,6,41.2,6,41.2,3,2.32,9.2,2,8.63-2.44,8.63-2.44,5.52-53.25,6.44-69.39,4-55.91-2.72-80.76Z" style="fill:#455a64"></path><path d="M156,275.47l-6.89,30.76L152.36,333l-1-27,6-25.22c3.95-.71,13.07-4.87,15.89-11.4C166.87,275.31,156,275.47,156,275.47Zm-17.16-19.19c.83-2.57,1.71-5.12,2.67-7.69a38.82,38.82,0,0,0-3.93,7.22,72.43,72.43,0,0,0-2.78,7.72c-.77,2.62-1.43,5.28-1.94,8a53.09,53.09,0,0,0-1,8.14c.8-2.62,1.56-5.22,2.31-7.82s1.49-5.2,2.28-7.79S138.05,258.85,138.87,256.28Zm-3.8-2.18c1-1.54,1.94-3.09,2.84-4.72a29.19,29.19,0,0,0-3.93,3.93,39.82,39.82,0,0,0-3.26,4.49,35.17,35.17,0,0,0-2.57,4.95,21.62,21.62,0,0,0-1.56,5.35l2.76-4.75c.93-1.55,1.86-3.11,2.83-4.64S134.11,255.65,135.07,254.1Zm-9.16,103.49q-3,12.48-5.65,25,3.64-12.31,7-24.71c2.23-8.26,4.36-16.51,6.49-24.84s3.54-16.79,4.84-25.25S141,290.89,142,282.39c-1.66,8.39-3.2,16.81-4.75,25.22s-3.16,16.79-5.2,25.07S127.88,349.27,125.91,357.59Zm48.66-39.52c0,3.72.05,7.45-.17,11.11s-.64,7.4-1,11.1l-1.06,11.12q-1.08,11.13-1.89,22.28,1.81-11,3.22-22.13c.95-7.4,1.85-14.78,2.44-22.26.31-7.54,0-15-.33-22.42s-.91-14.89-1.73-22.31l.39,22.35C174.49,310.63,174.57,314.35,174.57,318.07Z" style="fill:#37474f"></path></g></g><g id="freepik--top--inject-34"><path d="M188.38,137.48c-2.59-5-4.64-8.8-4.85-12a31.73,31.73,0,0,1,.22-5.34A40,40,0,0,0,184,114c0-.53,0-1.06-.11-1.59a21.83,21.83,0,0,0-1.08-4.28c-.44-1.39-.77-2.8-1.33-4.15a1,1,0,0,0-.21-.37.72.72,0,0,0-1,.11,1.79,1.79,0,0,0-.36,1,12.6,12.6,0,0,0,.21,3c.07.6.1,1.2.12,1.79,0,.3,0,.6,0,.9,0,.07-.1.63-.18.27-.14-.71-.24-1.45-.44-2.14-.27-1-.59-1.89-1-2.82-.54-1.39-1.21-3.36-2.37-4.36-.42-.37-1.11-.71-1.56,0-.14-.32-.19-.55-.46-1.23a10.78,10.78,0,0,0-.77-1.65.67.67,0,0,0-.26-.29.61.61,0,0,0-.33,0,2,2,0,0,0-1.25.73c-.32.39-.31.83-.53,1.25a2.17,2.17,0,0,1-.41.45,2.87,2.87,0,0,0-.58,2.47,24.71,24.71,0,0,0,.71,3.42,33.92,33.92,0,0,1,1,3.82,15.73,15.73,0,0,1,.24,1.81c0,.18.19,1.36-.29,1.05a.63.63,0,0,1-.23-.4,6.4,6.4,0,0,0-2-3.09c-.61-.51-2.47-1.29-2.51.11a3,3,0,0,0,.27,1.09c1.06,2.83,1.24,5.88,1.6,8.85a19.94,19.94,0,0,0,1.62,5.87,22.5,22.5,0,0,0,1.45,2.47,13.67,13.67,0,0,1,1.06,2.66c1.34,3.87,7.19,23.1,8.91,29.17,0,0-10,19.93-12.32,23.82-1.5,2.52-4.88,5.09-7.13,7.06-3.22,10.16,12.06,25.06,17.26,23.76-.08-1.59-.82-8.71,2.19-15.26,6.82-14.85,13.56-30,15.29-33.81,2.45-5.37,2.56-6.56-.86-13C193.34,146.7,191,142.46,188.38,137.48Z" style="fill:#f28f8f"></path><path d="M175.32,117.14c.17-.33.57-1.36-.09-.71a6.44,6.44,0,0,0-1.56,3.23,7.12,7.12,0,0,0,.18,3.55,3.07,3.07,0,0,0,1.72,2.13c-.29-.76-.69-1.48-.94-2.25a7.64,7.64,0,0,1-.28-2.33,10.24,10.24,0,0,1,.51-2.69A8,8,0,0,1,175.32,117.14Z" style="fill:#b16668"></path><path d="M173.91,110.26c-.28-1.1-.66-2.18-1-3.28a36.47,36.47,0,0,1-1.61-6.89c0-.08-.08-.06-.08,0a21.31,21.31,0,0,0,1.05,6.28c.27,1,.57,2,.87,3s.47,2,.74,3.08c0,.09.13.1.16,0A4.34,4.34,0,0,0,173.91,110.26Z" style="fill:#b16668"></path><path d="M176.9,110.21c-.21-1-.51-1.9-.77-2.85s-.67-2.43-.9-3.37a4.37,4.37,0,0,1-.21-2.8s0-.11,0-.09c-.66.35-.53,1.19-.41,1.81.22,1.06.66,2.66.92,3.71s.55,2,.8,3.07a14.2,14.2,0,0,1,.34,1.7,5.78,5.78,0,0,0,.23,1.37c0,.06.07.11.12,0C177.43,112.14,177.07,110.94,176.9,110.21Z" style="fill:#b16668"></path><path d="M175.73,190.32a9.28,9.28,0,0,0-.46-3.31c-1.31-4-5.56-7.43-9.21-9.21-4-2-8.12-3.25-11.76-5.9l8.9-7.27c3.05-3.57,3.48-9,2.56-13.21-2.46-11.26-14.67-12.14-20.66-11.07-11.75,2.09-15.74,6.12-16.12,12.2,0-.45-3.7,1.48-4,1.73a11.2,11.2,0,0,0-2.9,5.69c-.77,3.28-.42,6.46-.52,9.75a14.37,14.37,0,0,1-1.68,6.76c-1.1,1.71-3.7,3.1-5.32,4.29s-3.28,2.26-5,3.35a23.68,23.68,0,0,0-6.1,5,12.29,12.29,0,0,0-2.08,10.46,11.94,11.94,0,0,0,7.29,8.35c-1.48,3.78-.6,8.14,1.22,11.77,1.89,3.81,5,5.79,8.92,7.06a17,17,0,0,0,11.07-.3,7.53,7.53,0,0,1,2.81-.9,17.11,17.11,0,0,1,2.23.66,21.73,21.73,0,0,0,7,.38,13.49,13.49,0,0,0,8.05-3.67,10.68,10.68,0,0,0,2.53-4.16,1.18,1.18,0,0,1,1.74-.95,12.21,12.21,0,0,0,13.29-17.34,12.18,12.18,0,0,0,6.64-5.19A10.45,10.45,0,0,0,175.73,190.32Z" style="fill:#263238"></path><path id="freepik--chest--inject-34" d="M123.23,257c-3.63-2.2,3.13-7.42,3.13-19.58,0-4.12-1.38-14.41-1.38-14.41s6.88-8.71,4.48-28.52l19.82-5.75,13.18,2.05c4.07,2.78,10.26,7,15.2,12.53,6,6.78,6.47,16-.6,22.43-.08,1.22-.17,12.64.38,17.41.59,5.21,4.77,13.15,2.37,14.68C164,267.9,138,266,123.23,257Z" style="fill:#e0e0e0"></path><path d="M92.13,149.71c.94-5.79,1.72-10.26.86-13.53a21.16,21.16,0,0,0-2.07-5c-.47-.79-.93-1.58-1.36-2.39a12.94,12.94,0,0,1-1.25-3.15c-.27-1.14-.44-2.29-.61-3.44-.12-.88-.25-1.75-.41-2.62-.09-.43-.67-1.71.07-1.79a2.4,2.4,0,0,1,2.07,1,5.07,5.07,0,0,1,.8,1.75c.06.22.59,2.3.82,2.14,0,0,0-.07,0-.11a9.52,9.52,0,0,0,0-3.06,20.66,20.66,0,0,1-.17-3.77c0-.27.06-.55.11-.82a16.89,16.89,0,0,1,.43-1.87,9.47,9.47,0,0,1,.9-2.32,15.31,15.31,0,0,0,.92-1.49,5.93,5.93,0,0,0,.4-1.3l.42-1.82a.74.74,0,0,1,.17-.37.58.58,0,0,1,.31-.13,2.07,2.07,0,0,1,1.49.31c.43.28.57.72.93,1.06a1.86,1.86,0,0,0,.55.31,3,3,0,0,1,1.39,2.27,26.07,26.07,0,0,1,.42,3.62,16,16,0,0,0,.25,3.79c.17.08.29-.16.31-.34l.46-3.84c.05-.44.24-1,.69-1a.73.73,0,0,1,.43.19,3.8,3.8,0,0,1,1.19,2.66c.36,2.9-.26,6,.79,8.69.32.82.77,1.57,1.15,2.35a12.63,12.63,0,0,1,1,8.41,15.47,15.47,0,0,0-.48,3.86c-.07,4.29,1.26,25.27,1.55,31.86,0,0,13.4,14.58,17,17.68a42.31,42.31,0,0,0,9.2,6.14c6.54,9,.67,24.33-7.94,29.36-.45-1.6-2.59-5.58-7.16-11.57-9.94-13.07-23.65-28.49-26.09-32.12-3.42-5.11-3.58-5.81-2.58-12.15C90.2,160.48,91.19,155.51,92.13,149.71Z" style="fill:#f28f8f"></path><path d="M97,107.24c-1,.11-.9,1.66-.94,2.35-.25,4-.53,8.1.79,12a3,3,0,0,0-.09-1.29,38.45,38.45,0,0,1-.37-9c0-.59,0-1.18,0-1.76,0-.77-.07-1.6.61-2.1C97,107.38,97,107.23,97,107.24Z" style="fill:#b16668"></path><path d="M93.23,119.07c-.1-1-.15-2-.15-3.07s0-2,.08-3.08a28,28,0,0,0,.08-3.17c0-.09-.12-.16-.15,0a17.1,17.1,0,0,0-.4,3.27c-.09,1.1-.11,2.21-.1,3.31a16.62,16.62,0,0,0,1,6.19c.06.14.18.08.17,0C93.6,121.29,93.35,120.19,93.23,119.07Z" style="fill:#b16668"></path><g id="freepik--head--inject-34"><path d="M134.79,179.48a5.87,5.87,0,0,1-5.56-1.1c-3.27-2.56-4-5.6-3.12-7.87.77-1.87,3.19-3.39,5.2-2.56,2.16.89,2.39,1.87,3.36,3.13s3.8.65,3.53-5c-.25-5.29-.27-10.19,1.87-13,3.19-4.15,7.51-4.3,9.38-2.49,1.13-2.69,3.32-4.07,6.15-3.12s5.47,4.48,8,14.18c2.62,9.88,1.87,15.58,0,17.82-2.06,2.49-4.53,3.25-7.61,4.11l1.53,7s6.84,6.18-.52,7.89c-9.15,2.12-16.94-4.81-17.74-6.55l-2.65-14.35S136.67,178.79,134.79,179.48Z" style="fill:#f28f8f"></path><path d="M149.33,164a1.7,1.7,0,0,1-1.89,1.51,1.75,1.75,0,1,1,1.89-1.51Z" style="fill:#263238"></path><path d="M161,157.5l-3.84-1.2a1.92,1.92,0,0,1,2.45-1.35A2.11,2.11,0,0,1,161,157.5Z" style="fill:#263238"></path><path d="M157.36,161.91a1.68,1.68,0,1,0,.59-2.35A1.71,1.71,0,0,0,157.36,161.91Z" style="fill:#263238"></path><path d="M146.61,159.18,143.4,162a2.07,2.07,0,0,1,.11-3A2.24,2.24,0,0,1,146.61,159.18Z" style="fill:#263238"></path><path d="M148.6,173.67l5.79.61a2.91,2.91,0,0,1-3.48,2.54A2.73,2.73,0,0,1,148.6,173.67Z" style="fill:#b16668"></path><path d="M152.51,176.66a3.05,3.05,0,0,0-3.57-2l-.27.09a2.56,2.56,0,0,0,2.24,2.1A3.28,3.28,0,0,0,152.51,176.66Z" style="fill:#ffa8a7"></path><polygon points="152.35 161.08 155.16 170.74 160.16 167.77 152.35 161.08" style="fill:#b16668"></polygon><path d="M156.06,183.58c-3.54.37-8.72.81-11.26-.15a9.51,9.51,0,0,1-5.56-4.78s1,4.79,5.27,6.79c4.43,2.09,12.13.8,12.13.8Z" style="fill:#b16668"></path></g></g></g></g></svg>